<svg xmlns="http://www.w3.org/2000/svg" viewBox="0 0 508.2 363.6"><style>.st0{display:none}.st1{display:inline;fill:none;stroke:#83ac3f;stroke-width:3;stroke-miterlimit:10}.st2{fill:#83ac3f}.st3{fill:#8dc044}.st4{display:inline;fill:#95c11f}.st5{stroke-linejoin:round}.st5,.st6{display:inline;fill:none;stroke:#fff;stroke-width:20;stroke-linecap:round;stroke-miterlimit:10}.st7{fill:#2d2e83}.st8{display:inline}.st9{fill:#dedc00}.st10{fill:#fff}.st11{font-family:&apos;BauhausITCbyBT-Medium&apos;}.st12{font-size:130px}.st13{font-family:&apos;BauhausLT-Medium&apos;}.st14{font-size:99.0526px}.st15{display:inline;fill:#999a35;stroke:#fff;stroke-miterlimit:10}.st16{display:none;fill:#999a35}.st17{font-size:39.8823px}.st18{letter-spacing:-2}.st19{fill:#999a35}.st20{display:inline;fill:#fad541;stroke:#fad541;stroke-miterlimit:10}</style><g id="Capa_6" class="st0"><path class="st1" d="M512.1 234.6H23.3c-4.42 0-8-3.58-8-8v-58.5c0-4.42 3.58-8 8-8h488.8c4.42 0 8 3.58 8 8v58.5c0 4.42-3.58 8-8 8z"/></g><g id="Capa_9"><path class="st2" d="M427.97 299L6.8 275.31 47.96 4l457.38 122.73z"/><circle class="st3" cx="-54.4" cy="87.62" r="17.4"/><circle class="st2" cx="-54.4" cy="132.02" r="17.4"/></g><g id="Capa_10" class="st0"><path class="st4" d="M89.6 105.8v118.09l197.2 28.89L401.4 136.6l-4.65-25.82z"/></g><g id="Capa_7" class="st0"><path class="st5" d="M-15.4-1.8l64.8 26.4 27.72 197.35 332.21 44.79"/><path class="st5" d="M340.73 217.79s92.67-74.39 92.67-99.19-42-28.4-42-28.4L89.6 38.8v227s-1.6 14.25 15.2 17.93 31.6-29.53 31.6-29.53"/><path class="st6" d="M409.33 227.51c21.42 0 38.79 17.56 38.79 39.22s-17.37 39.22-38.79 39.22c-21.42 0-38.79-17.56-38.79-39.22 0-.84.03-1.67.08-2.49"/></g><path class="st7" d="M105.41 281.86c-16.11 3.77-32.23-6.24-36-22.35L18.96 43.9c-3.77-16.11 6.24-32.23 22.35-36 16.11-3.77 32.23 6.24 36 22.35l50.45 215.61c3.77 16.11-6.24 32.23-22.35 36zm59.65-37.44c-16.11 3.77-32.23-6.24-36-22.35L93.69 70.91c-3.77-16.11 6.24-32.23 22.35-36 16.11-3.77 32.23 6.24 36 22.35l35.37 151.16c3.77 16.11-6.24 32.23-22.35 36zm70.38 8.39c-16.11 3.77-32.23-6.24-36-22.35L164.71 82.02c-3.77-16.11 6.24-32.23 22.35-36 16.11-3.77 32.23 6.24 36 22.35l34.73 148.45c3.77 16.11-6.24 32.22-22.35 35.99zm70.27 7.96c-16.11 3.77-32.23-6.24-36-22.35l-33.5-143.17c-3.77-16.11 6.24-32.23 22.35-36 16.11-3.77 32.23 6.24 36 22.35l33.5 143.17c3.77 16.12-6.24 32.23-22.35 36zm74.42 25.66c-16.11 3.77-32.23-6.24-36-22.35l-36.09-154.26c-3.77-16.11 6.24-32.23 22.35-36 16.11-3.77 32.23 6.24 36 22.35l36.09 154.26c3.76 16.11-6.24 32.23-22.35 36zm67.34 8.43c-16.11 3.77-32.23-6.24-36-22.35-3.77-16.11 6.24-32.23 22.35-36 16.11-3.77 32.23 6.24 36 22.35 3.76 16.11-6.24 32.23-22.35 36z" id="Capa_11"/><g id="Capa_4" class="st0"><g class="st8"><path class="st9" d="M161.28 95.97s106.14-123.41 320.44-6.05c0-.01-157.43 53.08-320.44 6.05zm-.58 4.88c-.94-.33-.83.57-1.02.67 1.67.26 1.03-.89 1.02-.67zm16.37 2.41l-.36.26 2.55-.26zm14.94 3.48c-1.12-1.67-5.46-1.03-8.02-2.13l-.36-.42-1.46.84c3.28.57 7.64.85 9.84 1.71zm7.42 4.64c-.39-.65 1.84-.12-1.85-.55.17.1.22.14.31.21.34.06.78.15 1.54.34z"/><path class="st9" d="M197.9 111.04c-1.61-.28.95.67 0 0zm7.42 1.16l-2.19.07c.38.41 2.23.86 1.5.95 2.2.16 1.81-.26.69-1.02zm2.18-.67l-1.13.02c.17.17.45.27 1.13-.02zm-3.52.01c.8 0 1.59.03 2.39.01-.26-.28-.21-.73-1.09-.04.27-.38-.26-.07-1.3.03zm-1.26-.48c-1.12-.54-2.59-1.04-.4-1.1-4.04-.61-3.65.5.4 1.1zm-9.63-5.61l-1.47-.72-1.44.16c.71-.05 2.91 1.02 2.91.56zm25.25 9.71c.18-.28-.58-.92-.68-1.33l-1.61.08c.76.35 2.25.79 2.29 1.25z"/><path class="st9" d="M217.66 113.84l2.41-.12c-2.07-.42-2.49-.24-2.41.12zm-9.51-3.81c-1.34.16-2.67.28-4 .37 1.57-.04 3.16-.15 4.74-.26l-.74-.11zm19.12 6.49l-1.43.51 2.52-.73zm5.96.7c-1.06.44 1.22 1.16.14 1.38 1.63.13 3.07-.19 4.37-.51-1.36.11-2.76-.14-4.51-.87zm6.67.44c-.68.07-1.39.24-2.17.42.73-.06 1.44-.17 2.17-.42zm-15.88-3.22c.15.21.43.73 1.72 1.11l-.8-.97c-.28-.04-.6-.09-.92-.14zm.89.11l.03.03c.99.16 1.68.27 1.98.32-.26-.04-.86-.15-2.01-.35zm-1.12-.14c.08.01.15.02.23.04-.08-.1-.13-.14-.23-.04zm-9.68-2.59c1.45-.24 4.36-.27 1.74-1.45-1.08.41.43 1.09-1.74 1.45zm8.7 1.37c-.82-.18-1.63-.35-2.44-.56.01.23.41.63-.3.75.9-.04 1.82-.11 2.74-.19zm1.25-.1l-1.25.1.9.2zm11.67 3.3c1.12-.23 2.3-.15 3.64-.06-1.4-.34-2.87-.54-4.26-.76-.23.24-.91.64.62.82zm-5.25-.97c.08 0 .17-.01.24-.02-.13-.09-.25-.13-.24.02zm21.97 2.31l-.2-.17c-.02.05-.04.1-.06.14l.26.03z"/><path class="st9" d="M234.89 115.38c-1.05-.31-1.71-.19-2.35-.01.81.03 1.66.09 2.57.21.1-.11.13-.19-.22-.2zm8.72 2.28c-.54-.24-1.16-.46-1.8-.67.51.33 1.57.87 1.8.67zm-12.56-1.97c-.06.01-.11.01-.16.02.32.22.29.13.16-.02zm0 0c.57-.05 1.03-.2 1.48-.32-.66-.02-1.27-.02-1.81.04.13.07.25.18.33.28zm25.84-3.1c-.25.77-3.12 1.27-5.46.23-2.43.32-1.14 3.13.82 4.74.11-.34.14-.66 2.64-.92-.83-.5-5.36-1.46-3.22-2 3.29-.14 2.64.5 4.18 1.05-1.26-1.09 4.26-1.09 3.66-2.6l-2.88.28c-.03-.24 1.03-.51.26-.78zm-9.32 4.41l-1.02-.01c1.14.26 1.93.67 3.4 1.45 1.72-.2 2.1-.5 2.24-.74-1.66-.15-3.32-.42-4.98-.62l.36-.08zm-5.56-.51c.89-.77 3.35-.87 1.97-1.96-2.97-.26-2.15.49-3.97.67 4.81.31-1.43.33 1.97 1.19-.96.04-1.81-.01-2.62-.06.85.2 1.67.42 2.44.66-.04-.03-.07-.04-.1-.07h-.02l.01-.01c-.19-.13-.26-.2-.03-.11.02-.01.08-.01.1-.01.04-.11.14-.21.25-.3 1.37.33.19.25-.25.3-.02.04-.06.08-.07.12l.02.01 4.85.06c-1.01-.23-2.29-.34-4.55-.49zm-23.35-7.52c.13.1.12.16.12.22.33-.05.45-.1-.12-.22zm1.87.84c-.36.06-.7.35-1.81.08-.93-.42.07-.41.06-.7-.71.11-2.46.21-.41.98l.35-.06c.93.31 1.97.83 2.73 1.28.76.43 1.25.8 1.08.84-.44-.84-.85-1.45-2-2.42zm10.85 3.24l4.02.13-1.92-1.02.04.46c-2.23-.49-1.81.12-2.14.43zm21.49 5.14l-.62.86 2.44-1.09zm5.22.32l-.25.77 1.41-.36zm161.47-52.22l-1.17-.18c.54.11.89.16 1.17.18zm7.78 3.13l.34-.28c-.45.04-.65.13-.34.28zm-41.19 45.72c1.8.51 3.86 1.39 3.54.54l-.64-.79c-1.17.3-2.1.33-2.9.25zm84.53-22.11l-.79-.06c-.01.31-.08.62-.16.9.31-.26.65-.54.95-.84zm-4-2.64c.63.01 1.32.01 2.06 0-.62-.03-1.31-.03-2.06 0zM375.7 53.55l-1.51.53c2.04.51 1.25-.15 1.51-.53zm-64.12 66.55c1.49.32 2.67.44 3.71.47-1.79-.48-3.24-1.2-3.71-.47zm114.41-61.27c-.74-.11-1.09-.04-1.14.14.76.12 1.21.11 1.14-.14zm-106.4 61.67c-.26-.08-.52-.12-.79-.19-1.08.16-2.17.3-3.5.26 1.32.35 2.84.55 4.29-.07zM214.84 64.37c-.12.02-.26.06-.38.07.02.12.17.05.38-.07zM169.1 83.25c.34-.36.94-.9 1.53-1.38-.32.19-.8.58-1.53 1.38zm109.97 37.01c-1.11-.01-.18.09 0 0zm-5.2-3.73c.24-.08.42-.2.46-.4-.1.21-.26.33-.46.4zm56.53-1.8h.1c-.34-.15-.28-.12-.1 0zm-52.98 5.04c.41.13.89.25 1.4.34-.22-.08-.64-.19-1.4-.34zm.21.43c-.38-.05-.68-.1-.96-.14-.15.13-.03.23.96.14zm2.99.08c-.63 0-1.22-.08-1.79-.17.21.07.3.12.24.15.33.01.79.01 1.55.02zm19.23-78.22c-.07-.03-.16-.04-.24-.08-1.08.38-.6.32.24.08zm113.27 59.92c-.05.02-.07.04-.12.06h.16l-.04-.06zm3.74-1.33c-1.45 1.36-2.41 1.4-3.7 1.4l1.71 2.23 1.99-3.63z"/><path class="st9" d="M400.54 59.89l2.37 1.55c-3.55.25-5.67-.87-3.57.92.59-1.22 3.16-.55 5.69.22 2.52.84 5.03 1.68 5.66.46l1.51 1.15c-.48-.2-.61-.08-1.08-.28 2.85 2.42 3.11-.96 7.25.95 1.41.73 2.31 1.48 1.18 1.41 1.18.2 2.37.37 3.54.58.93.44.52.79-.4.35l5.04 1.86-.07.06c.87-.1 2.72-.04 3.61.02 1.11.88-.74 0-.55.45l3.01.54c.85 1.11-1.69.8-3.55-.08 1.52 3.57 2.54.32 7.46 4.07l-2.72-.76c1.05 2.13 3.31 2.39 5.8 4.56-.44-.83-4.87-4.67-1.61-4.07.76.54 1.83 1.06 3.62 1.33-.38.89 1.26 1.39 3.21 2.25l-.66 1.1c2.23.64 2.34-.03 3.81.02 2.27 1.2 2.33 2.32 2.52 3.33 3.62 1.92-1.88-2.64 2.62-.8 1.44.94 2.76 1.55 4.22 2.06 1.8.64 2.21.54 3.65.85.42.47.16.55-.13.61-.3.05-.64.07-.63.29.57-.09 1.21-.14 1.92-.15.23.15-.2.28-.41.34.62.1 1.03-.05 1.49-.16.47-.11.99-.18 2.09.19 1.21-.16 1.52.58 1.66 1.21.09.32.15.62.49.89.35.27.99.51 2.41.8-.39.2-2.05-.18-3.04-.14 1.13.29 1.99.54 2.69.74.36.11.67.2.95.28.03.06.06.11.1.17.11.23.48.43.72 1.13-1.34.1-2.56.17-3.66.19 1.52.07 2.5.33 2.78.81.3.46-.13 1.14-.84 1.83 1.41.08 2.76.1 3.58.06-1.21.6-2.54 1.22-4.02 1.87-.82.01-.68-.48-.51-1.08-.19.16-.38.32-.52.46-2.08.09-1.71-.78-1.56-1.57.69.07 1.45.14 2.24.2.07-.84-.51-1.58-1.76-2.01.04.14-.13.33-.44.49a.667.667 0 0 0-.47-.42c-.27-.07-.14.2-.24.56-.76-.29-1.46-.59-2.1-.91l.45.47c-1.33.06-2.45.05-3.34-.02-1.71 1.2-3.41 2.55-5.37 3.84-1.97 1.31-4.28 2.55-7.4 3.6 1.34-1.4-.05-1.74-.25-2.97 2.04.86 4.79-1.7 8.12-2.28-1.74.3-1.51-.37-1.13-.68-1.85.88-3.71 1.74-5.57 2.59-.1-1.02-1.42-.44-3.05-.49 1.62 1.69-4.08 2.3-6.35 3.43-.29-.62.13-1.42 3.09-1.92-3.55-.75-3.65 3.25-7.11 2.66.71-.17 1.12-.15 1.33-.54-1.55.94-5.74 1.34-4.89.56l.71-.16c-4.79.79-14.5 2.85-14.92 4.63-.09-.21.26-2.13.48-2.52-2.5 2.38-5.01 4.82-7.56 7.15.51-1.56-2.97-4.52.87-5.99-1.18-.02-2.62-.02-4.94.88.81.08 2.29 1.76 1.24 2.07-3.19-1.12-2.17-.52-5.99-1.3 1.22.12.28 2.6-1.59 2.8.24-.38-.5-2.21.14-2.55l-4.27 2.91c1.09-.57-.08-1.92-1.2-2.39.54.36-3.98.57-5.18.93l2.02.26c-5.25.36-4.72 3.82-9.93 4.39.57-.55 1.19-3.04-1.47-2.98-1.06 1.28-4.69 6.12-9.23 7.53l-.96-.55-3.47 1.09c2.05-1.9 7.82-6.26 10.99-8.05-2.01-.29-.63-.71-3.55-.31-1.1-.5 1.48-1.11 2.34-1.25l-6.83.38c.45 1.33-5.06 1.85-4.69 2.94 2.42-.7 4.84-1.39 7.25-2.15.22.65-.74 1.72-2.37 2.67-1.63.93-3.94 1.71-6.37 1.83-1.28-.41.69-2.47.55-2.91-.58.52-4.5 1.32-4.97 1.04l1.98-.91c-1.37-.12-2.42.43-3.56.89-1.14.44-2.35.78-4.02.27-1.13 0-3.47-1.47-3.6-.66 1.93 1.39 2.67 6.09 1.53 7.34-.41-.09-6.03-.97-7.36-1.69-1.93-1.09 2.59-3.02.94-3.96-.04.37-1.03.88-1.45 1.05-1.2-.25.41-1.16-2.13-.85-.34 1.39-5.2.18-1.14 1.22-2.48.53-2.67-.13-5.61.1.98.83-2.49 3.16-5 3.61.13-.35-.45-.78-.73-.98-5.16.04-7.94-.39-12.74-.36-.45-.32-2.77-.69-1.79-1.29-.68.25-1.31.72-2.79.78-2.87-1.14 3.29-.23 1.09-1.62-.17.79-3.8 1.15-5.91 1.68.65 1.21 4.87.16 6.97-.37.04 1.67-3.62 3.54-8.66 4.34-4.01.39-1.74-1.1-2.43-.87-3.76-.18-5.37.55-6.82 1.16-1.45.6-2.75 1.14-5.87.41-2.46-1.15-.06-2.14-.59-2.93 3.26-.28 4.98.8 7.19.77l-2.71-.53c1.04-.35 3.22-.6 4.4-.28-1.03-.51-4.2-.51-7.83-.68-3.63-.15-7.72-.31-10.59-.84-1.04.34-2.83.6-2.01 1.08.61-.01 1.22-.04 1.84-.07.82.46-.05.73-.84.95-.79.21-1.51.35-.35.62-2.48.47-5.3 1.27-8.75.59l-.58-1.26c.05.36 2.22.86 3.22.54-1.48.46-5.21-1.95-6.89-.44l2.38.98c-1.26.23-2.67.65-4.16.9-1.48.23-3.04.34-4.56.02 1.31 1.32.72-.08 2.8 1.51-.88-.97 1.08-.76 2.91-.64 1.83.11 3.51.2 2.05-.81 2.15 1.77 3.85.91 6.72 2.48-.07-.41-1-.83 1.58-.49.12-.11.41-.25.59-.32.08.02.11.02.17.04-.05-.02-.09-.04-.14-.06.12-.05.13-.07-.05-.02-.61-.21-1.1-.45-1.29-.69.67-.43 2.03-.58 3.39-.67 1.37-.09 2.75-.19 3.45-.4 1.53.24-.66.44.16.9l2.1-.65c.17.9 4.04 1.62.39 2.03l3.26.14c1.91.55 4.55.87 6.19.5 1.54.21 3.9-.96 2.55-.27l5.12-.52.05.22c5.06.2 10.37-1.54 16.17.01 1.7-.24 3.44-.56 6.29-.42l.58.76c2.17-.35 6.59.54 7.49-.31 2.46 2.01 10.62-.13 14.47.02l.08-1.02c2.64-.15 5.15-.63 8.38-1.29l-.27-.88c2.75-.92 7.28.02 11.72-.51-.27.37-1.41.39-2.22.26 5.53 1.54 11.04-2.63 16.01-1.72 1.16-.46 2.04-.45 2.9-.34a1.1 1.1 0 0 0-.29.09c.12-.01.31-.03.49-.05.55.08 1.11.19 1.72.25-.53-.15-1.03-.26-1.46-.29.92-.14 2.3-.44 3.65-.84l.71.88c.11-.02.2-.04.31-.07 1.39.17 1.02-.6.21-1.22.67-.25 1.27-.52 1.73-.82 1.31 1.4 3.52-.99 5.24.41.81-.94 6.78-1.63 7.25-3.42.08.21.5.26-.24.38 1.55-.03 3.1-.11 4.38-.8l.84 1.1 3.04-2.17c2.13.4 3.05.69 1.2 1.95 4.58-2.25 3.82-1.23 7.66-3.38l-.06.81c1.46-.29 3.6-1.76 4.6-1.3 3.56.87 16.18-2.99 24.81-3.62-2.15-1.88 4.11.09 4.02-1.74.61.42 1.85.45.61 1.23 4.11-1.58 6.6-.73 9.14-2.98.63.41-.7 1.02-.19 1.22l.33-.21c.07-.04.14-.08.22-.13.07-.04.15-.08.31-.14.55-.21 1.12-.37 1.55-.31.42.06.22.23-.24.46-.23.11-.52.24-.82.38l-.46.2c-.11.06-.17.1-.26.16.4-.12.77-.23 1.13-.34.4-.13.78-.26 1.14-.37.71-.24 1.29-.49 1.79-.73.99-.47 1.56-.92 1.86-1.34.6-.83.14-1.56-.34-2.25 1.72-.1 3.04-.3 3.95-.63.91-.33 1.4-.8 1.61-1.4 1.63.05 4.26-.19.94 1.03 1.05-.28 4.47-1.13 7.39-2.05 2.93-.91 5.27-1.83 3.82-2.02.34-.03.7-.1 1.05-.19-.18-.13-.52-.3-.86-.46-.69-.33-1.5-.66-1.89-.79-3.72-2.05-3.89-2.27-7.94-4.3l.71.6c-2.05-.26-2.87-.59-3.67-1.11-.78-.5-1.57-1.2-3.15-1.93l.27-.03c-1.37-1.03-2.35-1.67-3.05-2.07-.7-.4-1.13-.56-1.55-.71-.83-.3-1.6-.64-4.63-2.91l-.12 1c-1.43 1.61-4.48-3.44-8.11-4.27l.95 1.05c-2.09-.2-3.83-4.89-5.54-5.98-.32-.35.74.03 1.35.17-4.24-3.33-1.14.85-4.79-.53-.38-.92 1.55-1.18-.79-2.41-.97-1.07-7.91-.93-10.7-3.51.53.79 1.05 1.57-.77 1.24-2.62-.88-6.19-4.73-9.12-4.12-.28-.25-.36-.43-.32-.55-2.15-.33-6.74-1.69-8.24-1.29-.35-1.89-3.6-2.64-6.6-3.26-2.99-.68-5.82-.97-5.32-2.44l-6.29-1.78.25-.25c-3.94-1.43-5.56-1.16-7.16-.89-.86-.48-.11-.55.01-.68-1.41-.62-2.53-.99-3.48-1.29-.95-.3-1.74-.49-2.51-.61-1.54-.25-3.04-.2-5.69-.1l-.27-1.09c-.74.11-2.78-.82-5.41-1.81-2.64-.94-5.91-1.79-8.96-1.84.08-.1.24-.26.73-.3-1.71-.05-3.52-.45-5.33-.96-1.8-.52-3.61-1.17-5.32-1.58-3.41-.9-6.37-1.42-7.84.19l-4.51.22c5.63 1.13-1.05 1.43 1.2 2.37-1.12-.05-2.51-.57-3.3-.96-.78-.4-.94-.79.45-.75.14.07.27.15.41.24 1.25-1.8-7.01-1.36-6.73-2.62-2.82-.24-5.62-.58-8.4-.91-2.79-.21-5.56-.45-8.31-.7-5.5-.62-10.94-.72-16.28-.72l1.26 1.45-3.7-.05c-.98-.33-1.35-1.13 1.31-1.1-1.43-.87-4.42.87-4.47 1.19-5.21-.27 1.94-1.83.35-1.77l-2.16.25.5.14c-1.72.71-1.84 1.35-5.02 1.48-2.03-.16-1.1-.83-1.9-.84 0-.1-.28-.14-1.22.04-1.57.02-3.12.25-4.68.36l1.98.93c-2 .81-4.37.45-2.09 1.5-.84-.41-2.34-.53-4.16-.5-.91.02-1.9.08-2.92.16l-1.55.15-1.56.25c-4.15.7-8.12 1.54-9.14 1.4-2.7 1.35-5.46 2.03-8.95 2.68.92.04 1.72 1.19-1.28 1.7.11-.71-.19-1.06-.75-1.21-.56-.16-1.38-.08-2.3.08-1.83.3-4.08.82-5.54.22 1.24.32-.84.98-2.75 1.66-1.91.67-3.59 1.53-1.68 1.83-2.48.59-.44-.91-2.48-.9-1.37.73-2.86 1.31-4.44 1.82-.79.26-1.61.49-2.43.73-.82.26-1.66.52-2.5.78-3.39 1.04-7.04 1.99-10.41 3.73.03.37 1.4.36.13 1.49l-4.37-.01c-1.31.75-.39 2.41-3.36 2.5.47.1 1.18.25.33.79-1.75.62-3.47 1.31-5.18 2.05-1.68.8-3.34 1.68-4.99 2.57l-2.47 1.37-2.4 1.5c-1.59 1.01-3.21 2-4.78 3.05-6.33 4.18-12.46 8.55-19.35 12.1 2.02-.77 1 .15-.19 1.15.89-.51.54.68 1 .92-1.9.99-3.76 2.04-5.64 3.12.02.89-1.22 2.03-2.39 3.18-1.17 1.14-2.29 2.27-2.06 2.96.41-.54.83-1.07 1.26-1.58-.43 1.46.83 1.39 2.3 1.19 1.46-.21 3.17-.5 3.68.33.24-.79.81-1.4 1.57-1.93.76-.52 1.72-.95 2.69-1.44 1.93-1 4.05-2.06 5.1-4.51 1.06-.33-.31 1.03.4 1.04.42-1.38 1.48-2.38 3.82-3.69l-.12.35c1.45-1.18 2.8-2.05 4.04-2.87 1.24-.81 2.41-1.52 3.66-2.16 1.24-.65 2.5-1.31 3.92-2.05 1.41-.75 3.04-1.48 4.89-2.45l-1.02-.5c1.61-.82 2.09-.75 2.93-.98 1.06-2.31-4.39 2.53-3.58.2.76.11 1.83-.25 3.03-.82 1.21-.57 2.61-1.28 3.97-2 1.37-.72 2.71-1.43 3.87-1.86 1.18-.4 2.16-.56 2.77-.24 2.49-1.21-1.22-.62 1.28-1.83l.92.21.3-1c1.69-.69 2.83-.42 3.1.02-.43.11-1.06.67-1.47.91 1.19-.23 2.68-.92 3.97-1.61 1.29-.69 2.38-1.36 2.8-1.42l-2.58.73c1.67-.87 3.47-1.75 5.34-2.56 1.9-.74 3.85-1.5 5.79-2.25.97-.38 1.93-.77 2.89-1.14.97-.34 1.93-.7 2.87-1.06 1.88-.73 3.67-1.51 5.32-2.37l-.66-.25c1.26-.66 2.19-.98 2.95-1.18.75-.21 1.33-.29 1.93-.36 1.2-.15 2.47-.26 5.39-1.26l-.19.16c1.07-.79 2.63-1.37 4.29-1.68-1.39.85 3.08.36 1.23 1.36 5.72-2.19 2.76-1.33 6.36-3.84.35.17.71.37 1.06.56 1.23-.89 1.28-1.26 4.3-1.96-2.39 1.05 2.13.78-.52 2.09 3.32.27 5.59-.56 7.48-1.16 1.9-.54 3.4-.94 5 .07 2.71-2.38-5.69-.49-4.1-1.11-1.48-.5 2.24-1.8 4.3-1.84 1.04-.1 1.99.45 3.32.95 1.33.5 3.03.89 5.61.75-.52.02-.54.18-1.05.2 1.97.4 3.74-.95 6.17-.25 1.26-1.32 3.08-.12 3.39-1.73l-4.74.67c1.34-.29 2.61-.94 4.13-1.44.76-.24 1.57-.48 2.48-.55a12.1 12.1 0 0 1 3.04.19c-.34.32-1.66.76-2.56 1 1.32.45 2.5-.33 3.87.13-.18.79-1.62.89-3.38.95-.88.01-1.83.07-2.75.21-.91.14-1.78.34-2.48.69 1.41.57 5.39-1.47 4.01.31 2.02-2.2 5.09.23 8.58-1.48l-.23.95c.55-.15 1.7-.61 2.73-.6l-1.85 1.25c1.41-.54 2.78-.33 4.12-.04 1.34.35 2.66.76 4.03.53-5.67-.22-1.24-1.2-3.64-2 7.09-.96 3.97 2.66 11.81 2.54-1.06.09-3.95-.74-2.26-1.11 1.48.27 3.44.68 4.31 1.28 5.19.31-.72-1.05 1.53-1.42 1.68 1.32 2.59-.22 4.91-.37l-.07.96c5.86 1.19 1.78-1.85 7.05-.59l-2.41 1.11 2.82-.08-.7 1.03c3.11-.44 4.02-.03 6.92.7-.59-.78.63-1.68 3.26-1.31 1.7.83-1.14.76 2.59 1.18-.94.47-1.96 1.08-3.44-.04-.21.29-.91.48-1.13.76 1.81.94 4.77.87 6.11 1.06-.51-.11-1.11-.26-1.41-.44l2.79-.26c.93-.07 1.85-.09 2.78-.13.77.53.05.68-.65.82 1.09.12 1.92-.17 3.52.07-.56.69-.62 1.5-2.91 1.41l5.21.17c.27.4 2.4 1.44 1.69 1.59 1.35.51 3.13.48 5.04.5 1.91 0 3.9.24 5.67.98.23-.1.64-.14 1.45-.05 3.42 1.06 6.21 2.76 10.59 2.78l1.9 2.06c3.25.67-2.61-2.66 2.81-1.54 3.87.73 1.05 1.58 2.24 2.36 2.05-.11 5.73-.48 8.81 1.67-1.21-.12-2.04-.59-3.13-.82zm38.51 13.93c-.82-.12-2.52-.15-2.84-.9 1.27-.67 1.72.09 2.84.9zm24.94 19.12c.26-.4.92-.41 1.99-.33-.49.22-1.18.38-1.99.33zm-172.74 26.94c.03-.01.06-.03.09-.04 1.79.42 1.15.26-.09.04zm-3.74-.54c-.38.12-.36.26-.2.4.27-.24 1.11-.23 2.07-.13-.26-.26-.74-.45-1.87-.27zm.22-83.06l.75.2c-1.63.39-1.19.11-.75-.2z"/><path class="st9" d="M467.19 90.68c.35.07.65.17.95.28-.05-.15-.35-.27-.95-.28zm-91.21-37.23l-.12-.04c-.08.04-.13.09-.16.14l.28-.1zm-31.02 56.71c.77.09 1.2.25 1.5.41.02-.23-.34-.41-1.5-.41zm-77.38 9.89l2.42-.12c-1.16-.02-1.57-.25-2.14-.44.03.24.47.59-.28.56zm-20.21-7.7c-.36.08-.74-.07-1.09.01l.05.46c1.48.13 2.54-.12 1.04-.47zm18.2 4.38c-.13-.83-1.65-.67-3.33-.66.1.01.2.01.3.02-.58 1.09 1.23.86 3.03.64zm-3.72-.67c-.52 0-1.04-.03-1.55-.11-.22.44.63.15 1.55.11zm20.89 3.67c-.79-.23-.54 1.02-.98.68-.93 1 5.37-1.09.98-.68zm-18.33-5.78l.53 1.05.98-.74zm13.12 1.51l-2.65-.43c.03.17-.31.25-.73.3 1.63.13 3.42.43 3.38.13zm-3.39-.13c-.85-.07-1.67-.09-2.16.05.47.01 1.47.04 2.16-.05zm-6.07-1.44l.77.25 1.87.18zm38.14 2.43a95.5 95.5 0 0 0 2.91-.29c.29-.35-.5-.54-1.58-.4-.69.23-1.77.36-1.33.69zm-8.77-2.81c.78.21.83.44 1.27.77l.1-1.24-1.37.47zm8.46-.22c.29-.34 4.2-.96.53-.91-.29.34-3.2.6-.53.91zm43.76-.04l-.73.07.25 2.03zm37.77-8.76c-3.45-.04-.64 1.35-3.79 1.15-.74.58 2.57.16 1.81.68 1.98-.77 3.1-.62 1.98-1.83zm-1.98 1.84c-.32.12-.65.27-1.01.45.58-.21.85-.34 1.01-.45zM162.14 88.06l-1.95 1.32 1.55-.56zm-2.06 4.21l-1.33-.48c-.04.62-.07 1.22-.13 1.89.37-.52.96-1.3 1.46-1.41zM443.54 78.7l.28-.21c-.17-.45-.62-.69-1.53-1.18l1.25 1.39zm-27.02-12.16l.47.2-.49-1.43zm-23.98-6.49c.95.34 2.16.45 3.11.79-2.16-.44-2.95-2.27-3.11-.79z"/><path class="st10" d="M355.74 75.5c.29.14.33-.29.4-.34-.54-.09-.43.45-.4.34zm-5.26-.83l.15-.13-.86.14zm-4.62-1.49c.23.82 1.74.34 2.48.88l.09.2.55-.42c-1.03-.3-2.47-.26-3.12-.66zm-2.09-2.19c.08.31-.61.08.56.25-.05-.05-.06-.07-.09-.1-.09-.02-.23-.06-.47-.15zm.48.15c.5.12-.26-.31 0 0zm-2.34-.49l.72-.06c-.09-.2-.67-.4-.42-.45-.71-.06-.62.14-.3.51zm-.75.33l.37-.01c-.05-.08-.13-.13-.37.01z"/><path class="st10" d="M342.3 70.96l-.78.01c.07.14.02.36.35.02-.11.19.08.03.43-.03zm.38.22c.33.25.77.48.05.53 1.27.26 1.23-.27-.05-.53zm2.73 2.64l.42.34.49-.11c-.24.05-.88-.45-.91-.23zm-7.53-4.54c-.08.14.13.44.14.64l.53-.06c-.23-.15-.69-.35-.67-.58zm.13.64l-.79.09c.65.18.8.09.79-.09zm2.83 1.79l1.32-.19-1.55.14zm-5.77-3.07l.49-.25-.85.36zm-1.87-.35c.37-.22-.33-.58.03-.68-.52-.05-1 .08-1.43.24.44-.06.87.09 1.4.44zm-2.12-.23c.22-.03.46-.12.72-.21-.24.03-.47.09-.72.21zm4.91 1.61c-.04-.1-.09-.36-.48-.55l.2.48c.08.02.18.04.28.07zm-.28-.06l-.01-.02c-.31-.08-.52-.14-.62-.16.09.03.28.08.63.18zm.36.08c-.03-.01-.05-.01-.07-.02.01.05.03.06.07.02zm2.97 1.17c-.49.14-1.43.19-.66.73.38-.21-.07-.52.66-.73zm-2.73-.57l.75.27c.01-.11-.09-.3.15-.37l-.9.1zm-.41.05l.41-.05-.28-.1zm-3.55-1.64c-.37.1-.74.06-1.17.02.43.15.89.28 1.32.38.09-.11.33-.31-.15-.4zm1.63.48c-.03 0-.06.01-.08.01.04.05.07.07.08-.01zm-6.92-1.14l.05.08.03-.07zm5.5 1.16c.32.15.54.1.75.01-.26-.01-.53-.04-.81-.1-.04.05-.05.09.06.09zm-2.67-1.13c.16.12.35.22.54.33-.14-.16-.46-.43-.54-.33zm3.92.98c.02 0 .03-.01.05-.01-.09-.11-.09-.07-.05.01zm0 0c-.18.02-.34.1-.5.16.21.01.41.01.58-.02a.638.638 0 0 1-.08-.14zm-8.42 1.49c.12-.38 1.05-.6 1.74-.05.79-.17.52-1.53-.02-2.36-.05.17-.08.32-.89.43.24.26 1.63.78.92 1.03-1.05.03-.81-.28-1.27-.57.34.56-1.4.5-1.29 1.25l.92-.11c.01.11-.34.24-.11.38zm3.19-2.13h.33c-.35-.13-.58-.33-1.01-.71-.56.1-.7.23-.75.35l1.56.31-.13.05z"/><path class="st10" d="M330.34 68.65c-.33.38-1.12.44-.74.97.93.12.72-.25 1.31-.34-1.52-.14.48-.16-.57-.59.31-.02.58 0 .84.02-.26-.1-.51-.2-.75-.32l.03.03h.01v.01c.06.06.07.1 0 .06h-.03c-.02.06-.06.11-.1.16-.42-.16-.05-.12.1-.15l.03-.06v-.01l-1.55-.02c.3.11.7.17 1.42.24zm7.04 3.68c-.04-.05-.03-.08-.02-.11-.11.03-.16.06.02.11zm-.55-.39c.12-.03.25-.18.59-.06.27.19-.05.2-.06.34.24-.06.81-.14.19-.49l-.12.03c-.56-.28-1.21-.97-1.1-1 .09.42.19.72.5 1.18zm-3.28-1.58l-1.28-.07.56.5.01-.23c.68.25.59-.05.71-.2zm-6.6-2.56l.24-.42-.83.51zm-1.64-.22l.12-.38-.47.17zm-91.66 9.05l-.34.18c.17-.07.27-.13.34-.18zm2.62-.48l.03-.2c-.1.13-.14.22-.03.2zm48.52-10.53c-.56-.35-1.19-.9-1.1-.46l.18.43c.38-.09.67-.05.92.03zm-27.28 4.87l.17.11c.11-.16.21-.32.31-.46-.15.11-.31.23-.48.35zm-.15 1.83l-.74-.19c.17.08.41.14.74.19zm-37.83 7.74l-.32.53c.65-.16.31-.31.32-.53zm88.9-14.08c-.46-.2-.83-.3-1.16-.35.55.29.99.7 1.16.35zm-74.61 5.93c-.21.12-.29.22-.26.32.21-.12.33-.23.26-.32zm72.1-6.36c.08.05.16.07.24.11.35-.07.7-.09 1.11-.03-.41-.21-.88-.37-1.35-.08zM168.74 94.13c-.04-.01-.09 0-.13-.01.01.06.06.05.13.01zm-16.01 1.14c.13-.08.37-.17.58-.26-.11.01-.29.08-.58.26zm165.98-28.73c.36.01.06-.05 0 0zm1.49 1.9c-.08.04-.14.09-.16.19.04-.1.1-.16.16-.19zm-17.87-.3h-.03c.1.08.08.07.03 0zm16.89-1.35c-.12-.07-.27-.13-.43-.18.06.04.19.1.43.18zm-.05-.21c.12.03.21.05.3.08.05-.07.02-.12-.3-.08z"/><path class="st10" d="M318.22 66.5c.2.02.38.06.56.11-.07-.04-.09-.06-.07-.08-.1 0-.25-.01-.49-.03zM195.41 84.62c-.03-.01-.05-.01-.08-.02-.29.27-.15.2.08.02zm80.6-14.02c.02-.01.02-.02.04-.02-.02 0-.04-.01-.05-.01l.01.03zm-1.21.41c.49-.57.79-.53 1.2-.44l-.5-1.22-.7 1.66z"/><path class="st10" d="M227.43 78l.93.2c-.9.84-1.68.78-.77 1.15-.16-1.35 3.27-.84 3.12-2.18l.62.17c-.16.02-.17.1-.34.12 1.22.43.62-1.12 2.07-1.2.51.01.89.14.59.36l1.03-.54c.32-.04.29.21-.03.25l1.65-.43-.01.04c.2-.26.68-.68.92-.87.46.11-.19.18-.05.33l.87-.5c.44.27-.27.76-.92.83 1.11 1.17.71-.5 2.72-.03l-.85.32c.7.66 1.33.27 2.4.58-.28-.21-2.19-.86-1.24-1.36.3.05.68.04 1.18-.32.09.47.6.27 1.26.13l.06.64c.69-.3.58-.62.95-.97.81-.07 1.06.39 1.31.77 1.3-.12-1.01-.63.48-1.01 1.1.05 1.81-.31 3.04-.88.78.11-.07.41.22.55l.59-.6c.16-.01.14.15.12.23.53-.28-.05-.64.81-.94.14-.73 1.96.75 2.93-.2.29.14-.08.41.04.64 1.42-.73 1.22-.58 2.36-1.43l1.1.29c-.83-.38.08-1.07.89-1.64-.3-.2-.56-.37-.73-.45l1.34-.51c.18.08.07.32-.13.61.09-.06.17-.13.23-.18.52.17.31.57 0 .97l-.55-.33c-.29.43-.56.89-.44 1.26.08-.08.24-.17.43-.23-.08.12-.12.22-.07.27.06.06.18-.1.39-.29l.4.67.04-.29 1.85.22c1.2-.86 2.2-2.09 4.23-2.57-.46.57-.02.86.02 1.48-.63-.6-1.56.43-2.63.44.56 0 .47.31.34.43.61-.28 1.21-.55 1.83-.81.01.51.44.34.96.5-.48-.96 1.34-.8 2.08-1.18.08.33-.07.69-1.02.7 1.11.65 1.23-1.3 2.31-.76-.23.03-.36-.01-.43.17.51-.35 1.84-.24 1.56.08l-.23.03c.77-.01 1.93-.13 2.92-.33.99-.19 1.81-.48 1.89-.92.02.11-.12 1.04-.2 1.21l2.53-3.04c-.19.75.85 2.42-.39 2.92.37.08.83.17 1.58-.14-.25-.09-.69-1.01-.35-1.1.98.75.68.39 1.86 1-.38-.13-.03-1.3.56-1.31-.08.18.11 1.13-.1 1.26.47-.41.93-.82 1.4-1.2-.36.22-.02.95.33 1.26-.16-.21 1.27-.03 1.65-.15l-.63-.24c1.66.11 1.57-1.64 3.22-1.64-.19.24-.44 1.45.4 1.56.36-.59 1.61-2.83 3.07-3.33l.29.33 1.12-.38c-.69.85-2.61 2.73-3.65 3.49.63.24.18.38 1.11.32.33.3-.49.49-.76.52l2.15.13c-.11-.67 1.63-.68 1.54-1.24-.78.24-1.55.45-2.33.72-.11-.68 1.31-1.94 2.85-1.82.39.27-.28 1.2-.24 1.42.19-.23 1.45-.45 1.59-.28l-.64.36c.85.25 1.38-.9 2.41-.26.35.04 1.05.86 1.11.46-.57-.76-.68-3.14-.29-3.71.13.05 1.87.73 2.27 1.1.58.6-.89 1.44-.4 1.95.02-.18.35-.41.48-.48.37.17-.16.56.64.51.15-.68 1.64.11.39-.56.79-.17.84.17 1.76.17-.28-.45.87-1.47 1.68-1.64-.05.17.12.4.2.51 1.62.12 2.48.45 3.99.51.13.17.85.43.52.7.22-.1.44-.32.9-.3.86.65-1.04.02-.4.77.08-.39 1.23-.46 1.91-.66-.16-.63-1.52-.23-2.2-.03.04-.84 1.25-1.64 2.87-1.91 1.28-.12.51.58.74.48 2.35.32 2.14-1.32 4.07-.57.73.61-.06 1.06.07 1.47-1.04.13-1.54-.45-2.24-.48l.83.32c-.34.15-1.04.24-1.4.06.31.26 1.3.36 2.44.46 1.14.12 2.42.31 3.3.63.34-.14.92-.26.68-.51l-.58.01c-.48-.49 1.15-.47.44-.76.81-.21 1.74-.59 2.8-.22l.13.63c0-.18-.67-.45-1-.3.49-.22 1.56 1.02 2.16.28l-.71-.51c.82-.21 1.88-.76 2.81-.39-.35-.67-.23.03-.82-.78.48.93-2.49-.33-1.65.7-.6-.9-1.18-.49-2.02-1.29 0 .2.28.42-.52.23-.04.05-.14.12-.2.16-.02-.01-.03-.01-.05-.02l.04.03c-.04.03-.04.03.02.01.18.11.33.23.38.35-.46.41-1.75.25-2.21.44-.47-.15.23-.21-.01-.45l-.69.28c-.02-.45-1.21-.89-.04-1.02l-1.03-.14c-.58-.34-1.41-.48-1.94-.33-.48-.13-1.27.41-.82.09l-1.64.16-.01-.11c-1.6-.17-3.32.5-5.1-.43-.54.1-1.1.22-2 .06l-.1-.45c-.7.11-2.06-.46-2.37-.06-.72-1.06-3.35-.36-4.56-.54l-.05.51c-.84-.03-1.64.12-2.67.33l.06.45c-.89.37-2.29-.31-3.71-.26.09-.17.45-.13.71-.03-.85-.5-1.74-.32-2.61-.09-.86.25-1.7.54-2.48.2-.38.18-.65.13-.92.03.04 0 .07-.01.09-.03h-.16c-.17-.07-.35-.15-.54-.22.16.1.32.19.45.22-.29.02-.74.09-1.17.22l-.21-.47c-.04.01-.06.01-.1.02-.44-.16-.34.24-.09.59-.22.09-.41.19-.56.31-.38-.76-1.13.3-1.64-.51-.28.4-2.18.4-2.36 1.28-.02-.11-.15-.15.08-.18-.49-.06-.98-.13-1.4.14l-.24-.6-1 .89c-.67-.33-.95-.53-.34-1.04-1.49.83-1.23.36-2.49 1.16l.03-.4c-.47.05-1.17.63-1.48.32-1.11-.68-5.17.39-7.93-.06.64 1.11-1.3-.4-1.31.51-.19-.26-.58-.36-.17-.66-1.34.44-2.11-.18-2.96.69-.19-.26.24-.44.09-.58-.1.07-.41.29-.57.15-.16-.15.17-.25.38-.4-1.39.22-1.43 1.08-1.43 1.88-.75-.29-1.1-.19-1.54.39-.28-.23-.72-.45.13-.65-.49.02-3.03-.02-2.99.64-.17-.14-.68.05-.8.14-1.09.12-1.2.08-2.26.3l.31.06c-.31.83-.86.3-1.71.52l.01-.08c-2.06-.26-.81.39-2.86.05l.18.46c-.02 1.04-1.82-.33-2.88.26l.45.2c-.56.45-1.95-1.09-2.59-1.11-.15-.07.19-.18.37-.28-1.73-.32-.11.66-1.29 1-.28-.3.14-.9-.68-.82-.45-.19-2.17 1.47-3.39 1.05.29.21.58.42.06.72-.84.25-2.5-.53-3.12.43-.12-.05-.18-.11-.19-.17-.62.33-2.06.75-2.37 1.27-.93-1.53-3.9 1.61-4.19.11l-1.99.5.02-.16c-1.3.17-1.68.62-2.05 1.08-.32-.04-.13-.22-.12-.31-1.94.09-2.11.22-3.5 1.31l-.27-.45c-.36.38-2.87-.14-4.57.84.01-.06.02-.16.15-.26-1.92 1.05-5.24-.13-5.56 1.8l-1.24.76c1.78-.29-.07.82.72.94-.66.27-1.91-.09-1.09-.39l.15.06c.08-1-2.25.23-2.36-.4-3.42.94-6.9 1.31-10.11 2.18l.57.6-1.13.27c-.34-.08-.55-.44.26-.63-.53-.28-1.24.71-1.22.86-1.64.15.38-.99-.11-.87l-.64.23.17.04c-.45.43-.4.75-1.37 1-.64.04-.43-.34-.68-.3-.01-.05-.1-.05-.37.09l-1.42.35.72.39c-.54.45-1.33.36-.5.79-1.24-.7-5.32 1.19-5.99 1.08-.74.67-1.6.92-2.67 1.2.3.03.65.61-.29.81-.07-1.38-1.84-.02-2.87-.71.85.4-2.54.98-1.23 1.51-.79.14-.2-.46-.87-.58-1.65 1.07-4.08.99-6.26 1.89.02.18.48.31.09.72l-1.45-.43c-.41.23-.08 1.1-1.07.8.16.1.4.25.13.41-4.64.69-8.61 3.76-13.55 3.92.71.09.33.27-.12.46.32-.04.15.41.29.61l-2.07.09c-.09.75-1.94.81-1.9 1.48l.53-.34c-.49 1 1.68 1.12 1.92 2.06.54-1.13 2.7.3 3.67-1.36.38.07-.16.39.09.53.21-.52.61-.76 1.47-.88l-.05.13c2.21-.93 3.31-.9 5.93-1.55l-.35-.38c.57-.13.73-.03 1.02-.01.38-.9-1.54.5-1.24-.44 1.05.65 3.85-1.35 4.7-.47.84-.28-.43-.43.42-.72l.32.2.09-.43c.57-.13.97.13 1.07.36-.14.02-.36.2-.49.27.83.09 1.97-.8 2.26-.78l-.87.1c2.21-1.03 5.13-1.61 7.18-2.88l-.24-.16c1.58-.94 1.44-.2 3.25-.98l-.05.07c.31-.33.77-.6 1.3-.73-.4.39 1.04.21.51.68 1.72-.99.81-.61 1.8-1.78l.39.27c.32-.45.3-.63 1.22-1.01-.68.54.76.36.02 1.02 2.2.17 2.7-1.66 3.94-.79.62-1.25-1.87-.05-1.43-.41-.52-.2.53-.95 1.18-1.04.64-.16 1.44.95 3.03.46-.16.04-.15.12-.31.16.67.08 1.07-.68 1.91-.48.24-.71.96-.23.86-1.02l-1.41.59c.77-.44 1.3-1.54 2.79-1.49-.06.18-.41.5-.66.69.46.11.73-.36 1.21-.25.09.8-1.73.66-2.45 1.49.52.2 1.52-1.02 1.31-.07.35-1.23 1.61-.3 2.46-1.41l.06.48c.15-.12.45-.43.76-.51l-.41.75c.73-.75 1.8-.03 2.57-.53-1.75.49-.54-.44-1.38-.57 2-1.21 1.57.86 3.94 0-.31.15-1.31.05-.85-.3.49-.03 1.14-.01 1.49.16 1.58-.52-.37-.41.24-.87.69.42.73-.44 1.39-.8l.13.47c1.91-.18.24-1.11 1.99-1.17l-.54.82.82-.38-.04.58c.84-.63 1.16-.6 2.12-.67-.3-.28-.09-.88.72-1.1.63.14-.2.52.94.17-.19.36-.38.8-.99.49-.01.17-.18.36-.2.52.68.17 1.52-.3 1.94-.4-.17.02-.36.04-.48 0l1.52-1.06c.31.11.13.3-.04.49.33-.13.51-.41 1-.57-.04.41.09.8-.58 1.15l1.5-.81c.15.14.93.27.75.46.94.02 2-1.24 3.25-1.21.04-.09.15-.19.39-.3 1.13-.16 2.21.07 3.41-.73l.9.53c1-.37-1.2-.65.46-1.27 1.17-.48.58.49 1.05.59.53-.47 1.44-1.4 2.67-1.08-.38.2-.69.15-1.02.28zm12.7-2.76c-.23.14-.67.53-.9.28.19-.59.45-.37.9-.28zm19.4-4.06c-.17.18-.46.14-.81 0 .22-.07.49-.09.81 0zm55.32-4.69c-.01.01-.02.01-.03.02-.56-.23-.36-.14.03-.02zm1.15.34c.13-.05.12-.12.08-.19-.09.11-.36.09-.66.02.08.13.22.23.58.17zM190.95 82.51l.25.06c-.45.28-.34.12-.25-.06z"/><path class="st10" d="M257.38 72.11c-.08-.07-.11-.16-.14-.25-.09.09-.08.19.14.25zm-37.79 7.85h-.04c-.01.03-.02.06-.02.09l.06-.09zm78.04-10.07c-.24-.07-.37-.16-.46-.25-.01.12.09.22.46.25zm24.73-3.15l-.77.04c.37.02.49.14.66.24-.01-.12-.13-.3.11-.28zm6.04 3.97c.12-.04.23.03.35-.01l.01-.23c-.46-.06-.82.07-.36.24zm-5.56-2.3c0 .41.49.32 1.03.34-.03 0-.06-.01-.09-.02.23-.53-.35-.45-.94-.32zm1.15.35c.16.01.33.02.48.07.1-.22-.18-.08-.48-.07zm-6.46-2.03c.24.13.21-.5.34-.32.33-.47-1.75.43-.34.32zm5.55 3.06l-.12-.52-.34.36zm-4.08-.85l.82.24c0-.08.11-.12.24-.14-.51-.09-1.06-.25-1.06-.1zm1.06.09c.27.04.52.06.68 0-.14-.01-.45-.03-.68 0zm1.86.77l-.23-.13-.59-.11zM309.99 68l-.93.08c-.1.16.14.29.48.24.23-.1.58-.14.45-.32zm2.66 1.57c-.24-.12-.25-.23-.37-.41l-.08.62.45-.21zm-2.67-.05c-.1.17-1.35.4-.2.44.1-.16 1.03-.23.2-.44zm-13.74-1.33l.23-.01-.03-1.02zm-12.08 2.65c1.09.2.23-.64 1.22-.37.24-.25-.81-.22-.55-.44-.65.29-1 .15-.67.81z"/><path class="st10" d="M284.82 70.04c.1-.04.21-.1.33-.17-.19.07-.28.12-.33.17zm-134.7 25.65l-.73.07.55.15zm-.98 1.21l-.4-.54-.18.71c.14-.09.42-.26.58-.17zm93.12-20.7l.03-.16c-.13-.15-.3-.13-.62-.11l.59.27zm-9.35 1.21l.16-.01-.41-.52zm-7.59 2.32c.32-.04.66-.25.99-.29-.67.24-1.23-.41-.99.29z"/></g></g><g id="Capa_5" class="st0"><text transform="translate(1.2 304.8)" class="st8 st11 st12">La Karreta</text></g><g id="Capa_3" class="st0"><text transform="translate(92.36 -140.948)" class="st12" fill="#83ac3f" font-family="2Peas-Mister-Giggles">Karret</text><text transform="translate(-9.11 -138.793)" class="st12" fill="#83ac3f" font-family="2Peas-Mister-Giggles">L</text><text transform="translate(18.985 -157.771)" class="st12" fill="#83ac3f" font-family="2Peas-Mister-Giggles">a</text><text transform="translate(436.675 -157.771)" class="st12" fill="#83ac3f" font-family="2Peas-Mister-Giggles">a</text></g><g id="Capa_1"><text transform="translate(119.65 356.287)" class="st2 st13 st14">Karreta</text><g class="st0"><path class="st15" d="M133.86 164.18h3.7v33.51c0 1.83.48 3.24 1.44 4.23.96.99 2.33 1.48 4.11 1.48h5.06v3.43h-4.42c-3.32 0-5.8-.8-7.44-2.41-1.64-1.61-2.45-4.05-2.45-7.32v-32.92z"/></g><text transform="translate(110.402 202.126)" class="st16 st11 st17 st18">La</text><text transform="translate(3.61 356.287)" class="st2 st13 st14">La</text></g><g id="Capa_2" class="st0"><g class="st8"><path class="st19" d="M-6.25-237.02c.45-.15.14-.47.18-.57-.69.39-.12.66-.18.57zm-6.66 4.06l.04-.22-.81.89zm-6.24 3.58c.96.25 2.16-1.46 3.39-1.91l.26.03.21-.8c-1.3.89-2.81 2.27-3.86 2.68zm-4.05.95c.36.08-.55.69.79-.46-.09.03-.12.03-.18.04-.12.09-.3.22-.61.42zm.62-.43c.62-.46-.55.11 0 0zm-2.77 2.26c.21-.28.41-.57.64-.83-.29-.02-1 .54-.81.23-.73.78-.45.77.17.6zm-.41 1.02l.34-.42c-.12.01-.24.08-.34.42z"/><path class="st19" d="M-24.71-226.89l-.72.89c.18 0 .34.17.34-.39.07.23.11-.07.38-.5zm.58-.28c.56-.21 1.2-.56.53.23 1.5-1.2.98-1.44-.53-.23zm5.08-1.4l.74-.21.42-.54c-.21.27-1.32.58-1.16.75zm-11.33 5.86c.06.15.52.06.71.14l.42-.65c-.35.2-.94.64-1.13.51zm.71.15l-.62.97c.73-.68.78-.9.62-.97zm4.27-2.29l1.06-1.6-1.32 1.83zm-8.05 5.17l.17-.72-.37 1.21zm-1.86 2.18c.1-.55-.8.17-.61-.33-.47.63-.74 1.27-.94 1.89.3-.58.8-1.06 1.55-1.56zm-1.9 2.56c.14-.29.24-.63.35-1-.15.31-.27.63-.35 1zm5.5-5.38c-.13 0-.42-.06-.94.31l.62-.01c.1-.09.21-.2.32-.3z"/><path class="st19" d="M-32.01-220.02h-.02c-.35.32-.59.55-.68.66.08-.09.29-.3.7-.66zm.38-.38l-.08.08c.06 0 .09-.01.08-.08zm3.76-2.88c-.37.57-1.12 1.74.05 1.09.15-.53-.56-.19-.05-1.09zm-2.99 2.88l.91-.75c-.09-.07-.36-.03-.21-.35l-.7 1.1zm-.31.5l.31-.5-.34.28zm-4.44 3.63c-.21.5-.55.94-.9 1.47.46-.5.96-1 1.4-1.49-.04-.16-.03-.54-.5.02zm1.76-1.82c-.02.03-.04.07-.06.1.08-.03.12-.06.06-.1zm-6.33 8.32l.12-.04-.05-.06z"/><path class="st19" d="M-34.98-216.33c.4-.33.52-.62.61-.93-.22.31-.47.63-.75.96.03.07.05.1.14-.03zm-3.13 2.91c.23-.16.48-.35.72-.56-.26.12-.75.41-.72.56zm4-4.52l.04-.07c-.18.07-.13.08-.04.07zm0 0c-.13.24-.19.46-.25.68.18-.25.34-.5.46-.73-.07.03-.15.05-.21.05zm-4.78 11.21c-.29-.28.11-1.57 1.08-2.28.35-1.09-1.1-1.24-2.25-.81.12.13.26.22-.18 1.32.41-.23 1.82-1.87 1.59-.85-.66 1.39-.79.97-1.38 1.48.76-.26-.44 2 .36 2.1l.5-1.24c.1.04-.01.53.28.28zm.11-4.91l.25-.41c-.38.4-.77.61-1.41 1.05-.28.79-.25 1.01-.17 1.13.46-.65.87-1.33 1.38-1.93l-.05.16zm1.56-2.13c.11.56-.43 1.58.36 1.31.82-1.13.31-1 .67-1.78-1.29 1.87.21-.67-.98.49.21-.4.44-.74.66-1.05-.29.29-.58.57-.87.82.02-.01.04-.02.05-.03l.01-.01v.01c.1-.05.15-.05.06.02 0 .01-.02.03-.02.04.03.04.04.11.06.18-.47.47-.15.01-.07-.18-.01-.02-.02-.05-.03-.06h-.01l-1.2 1.96c.34-.35.7-.84 1.31-1.72zm9.17-6.91c-.08.02-.09 0-.12-.02-.06.14-.08.2.12.02z"/><path class="st19" d="M-28.88-220.23c.07-.16.05-.38.46-.71.42-.22.14.15.25.24.15-.3.59-1-.27-.46l-.07.15c-.74.52-1.96.95-1.89.8.47.09.83.12 1.52-.02zm-4.23 3.17l-1.08 1.54.91-.47-.2-.11c.77-.73.41-.74.37-.96zm-7.37 7.35l-.24-.46-.07 1.28zm-1.31 2.11l-.28-.28-.16.67zM8.18-104.27l.53-.02c-.25-.01-.41 0-.53.02zm-3.71-.76l-.13.17c.19-.07.28-.13.13-.17zm-53.61-43.91c-.1.88-.34 1.94.04 1.71l.33-.38c-.25-.52-.35-.95-.37-1.33zm24.58 32.15c-.03-.08-.06-.17-.09-.25l-.67-.03c.23.08.49.18.76.28zm1.57-1.05l.62.84c-.12-.22-.32-.49-.62-.84zm51.69 13.39l.54-.51c-.94.11-.49.28-.54.51zm-79.51-79.56c-.3.66-.48 1.2-.6 1.68.41-.8.91-1.39.6-1.68zm56.66 84c.35-.02.51-.08.52-.18-.36.02-.58.06-.52.18zm-57.57-80.31c.06-.12.09-.24.15-.36-.02-.52 0-1.05.16-1.66-.15.29-.3.61-.37.95-.05.35-.05.71.06 1.07zm134.65 30.38c.04-.05.07-.1.1-.14-.04-.04-.07.03-.1.14zm7.49-21.57c.03.23.04.6.05.95.02-.17.02-.46-.05-.95zm-136.98-27.31c.19-.49-.01-.1 0 0zm2.61-1.6c0 .12.02.22.11.28a.384.384 0 0 1-.11-.28zm-5.63 25.5v.04c.09-.14.07-.11 0-.04zm3.53-24.54c-.13.16-.26.35-.4.56.08-.09.2-.26.4-.56zm-.23.01c.09-.16.16-.28.23-.4-.04-.09-.11-.06-.23.4zm-.56 1.31c.12-.28.25-.53.39-.76-.07.08-.11.11-.11.08-.06.14-.14.34-.28.68zm107.9 81.52c.03-.01.07-.03.11-.03.29-.46.13-.3-.11.03zm-100.95-21.84c-.01-.02-.03-.02-.04-.04.01.02.01.05.02.07l.02-.03zm1.15 1.39c-.84-.39-1.02-.79-1.17-1.35l-.82 1.12 1.99.23z"/><path class="st19" d="M17.19-103.5l-1.22-.42c1.51-.61 2.55-.36 1.43-.93-.23 1.42-4.72-.13-5.01 1.19l-.78-.39c.23.04.28-.03.5.01-1.48-.85-1.28.84-3.3.36-.69-.23-1.15-.51-.64-.58l-1.63.05c-.45-.11-.29-.32.15-.21-.81-.09-1.6-.25-2.39-.4l.03-.03c-.38.13-1.23.27-1.64.32-.56-.33.34-.07.23-.27-.47.02-.93-.02-1.39-.03-.43-.5.72-.49 1.61-.24-.88-1.6-1.17.04-3.55-1.45l1.26.18c-.28-.48-.67-.72-1.15-.95-.47-.25-1.01-.49-1.6-.94.22.34 2.31 2.06.84 1.92-.36-.23-.85-.45-1.69-.44.16-.47-.62-.56-1.52-.9l.29-.57c-1.02-.2-1.06.13-1.74.17-1.06-.47-1.07-1.04-1.15-1.53-1.63-.85.84 1.25-1.2.46-1.31-.83-2.37-1.09-4.2-1.6-.86-.69.35-.26.09-.6-.37.01-.72-.01-1.08-.02-.2-.13-.06-.23.02-.28-.8-.23-.37.53-1.57.04-.32.21-.78-.31-1.33-.97-.56-.65-1.23-1.36-2.12-1.45-.23-.36.38-.22.41-.49-2.07-.8-1.72-.74-3.6-1.21l-.94-1.27c.58 1.07-.88.64-2.19.21.17.43.32.8.44 1.02-.62-.33-1.22-.67-1.81-1.04-.12-.24.18-.27.61-.26-.14-.05-.27-.1-.38-.13-.4-.66.13-.69.75-.62l.3.78c.63.03 1.28-.03 1.43-.39-.15-.02-.39-.13-.63-.27.17 0 .29-.02.29-.11-.01-.09-.26-.11-.61-.21l.12-.84-.27.14c-.55-.69-1.13-1.35-1.65-2.05-.91-.37-1.85-.66-2.86-1.08-.98-.46-2.04-1.06-3.17-2.08.88.21.74-.45 1.22-.84.08 1.03 1.77 1.49 2.76 2.66-.53-.6-.18-.7.03-.62l-2.31-1.56c.42-.3-.13-.67-.43-1.35-.38 1.07-1.86-1.08-2.78-1.77.23-.28.62-.25 1.46.82-.4-1.59-2.13-.77-2.56-2.32.21.26.28.43.5.43-.74-.41-1.67-2.1-1.16-1.91l.2.27c-1.23-1.83-3.74-5.55-4.59-5.45.08-.07 1.03-.27 1.24-.24-1.46-.65-2.99-1.32-4.43-2.1.81-.03 1.75-2.01 2.94-.58-.15-.51-.33-1.14-1.06-2 .07.36-.54 1.27-.82.86.11-1.56-.04-1.04-.09-2.83.08.55-1.21.49-1.53-.32.21.05 1.01-.52 1.24-.28-.64-.48-1.26-.99-1.86-1.51.38.42.92-.27 1.04-.83-.11.28-.67-1.68-.93-2.18.01.31.02.62.05.93-.33-1.14-.87-1.57-1.45-2-.57-.43-1.19-.86-1.48-2.04.3.22 1.56.27 1.37-.92-.35-.18-1.19-.58-2.06-1.2-.84-.63-1.71-1.48-2.18-2.5l.23-.48c-.24-.52-.45-1.05-.67-1.57 1 .9 3.42 3.3 4.49 4.57.01-.92.3-.33-.03-1.61.2-.52.61.59.72.96l-.5-3.01c-.66.28-1.08-2.17-1.62-1.96.42 1.07.84 2.12 1.34 3.15-.31.14-.89-.22-1.43-.91-.53-.69-.98-1.72-1.12-2.82.16-.6 1.26.22 1.47.14-.14-.12-.35-.61-.48-1.11-.12-.5-.2-.99-.13-1.1l.47.87c.11-1.23-1.15-1.86-.66-3.4 0-.51.75-1.57.35-1.63-.7.87-3.05 1.26-3.67.72.02-.2.52-2.82.93-3.42.58-.87 1.46 1.23 1.96.48-.18-.02-.42-.48-.5-.67.14-.54.57.21.46-.95-.7-.18.03-2.37-.59-.54-.22-1.14.17-1.21.18-2.55-.46.42-1.45-1.26-1.6-2.45.17.08.41-.17.51-.29.23-2.37.77-3.59 1.01-5.78.16-.18.6-1.18.79-.69-.06-.33-.23-.65-.11-1.32.83-1.17-.2 1.49.69.64-.37-.15-.2-1.8-.25-2.8-.66.16-.55 2.17-.49 3.16-.83-.13-1.37-1.96-1.29-4.37.23-1.88.73-.66.68-1 .54-1.67.39-2.48.28-3.23-.1-.74-.24-1.42.59-2.7.91-.92 1.03.3 1.48.18-.35 1.47-1.06 2.09-1.32 3.09l.58-1.14c.04.52-.1 1.52-.4 2 .18-.2.38-.65.58-1.25.2-.6.42-1.35.74-2.13.61-1.56 1.21-3.36 1.96-4.48.03-.5.2-1.32-.16-1.05l-.28.8c-.72.55.11-1.7-.52-.79.19-1.16.3-2.56 1.2-3.93l.69.01c-.2-.06-.79.79-.81 1.29 0-.76 1.84-1.84 1.5-2.85l-.92.8c.28-1.16.41-2.75 1.29-3.94-.84.28-.1.33-1.22.89 1.2-.36-1.84 3.28-.32 2.44-.62.28-.93.64-1.22 1.06-.27.43-.55.9-1.16 1.39.2.05.56-.29-.05.79.03.08.04.23.05.32-.02.03-.03.04-.05.07l.05-.05c.01.06.01.07.02-.02.2-.23.4-.4.54-.44.17.75-.65 2.5-.68 3.19-.34.64-.11-.37-.45-.08v1.05c-.45-.08-1.36 1.55-1.02-.16l-.55 1.45c-.54.78-1.11 1.92-1.13 2.73-.29.68-.02 1.92-.19 1.21l-.39 2.41-.11-.01c-.39 1.14-.43 2.4-.58 3.66-.13 1.27-.47 2.54-1.02 3.84.02.82.06 1.66-.23 2.98l-.42.22c.02.52-.21 1.29-.3 1.99s-.15 1.34.05 1.57c-.54.53-.65 1.81-.65 3.17.01 1.36.26 2.8.17 3.72l.51.05c.01 1.26.29 2.45.6 3.98l.44-.14c.24.64.29 1.5.28 2.46-.02.96-.01 2.03.21 3.06-.19-.11-.24-.65-.21-1.04-.58 2.7 1.72 5.08 1.62 7.44.31.51.37.92.37 1.33-.02-.05-.04-.09-.06-.13.01.06.03.14.06.23 0 .26-.02.54-.01.83.04-.26.06-.51.05-.71.12.42.37 1.05.7 1.63l-.37.41c.02.05.04.09.06.14.04.67.38.42.62-.02.18.29.37.54.55.72-.58.76.81 1.52.31 2.47.27.13.64.87 1.06 1.57.43.69.95 1.33 1.4 1.32-.09.07-.06.26-.21-.05.21.69.42 1.4.9 1.88l-.41.54 1.45 1.03c.1 1.02.1 1.48-.76.85 1.69 1.71 1.15 1.52 2.72 2.86l-.39.12c.35.61 1.41 1.26 1.36 1.78.05.43.33 1.05.75 1.81.45.74 1.05 1.59 1.69 2.51.67.9 1.39 1.86 2.09 2.8.7.94 1.4 1.84 1.93 2.73.18-.69.38-.24.66.3.28.53.63 1.18 1.01.93-.04.36.24.88-.39.57 1.6 1.32 1.91 2.51 3.45 2.95-.02.37-.6-.01-.55.26.16.07.64.28.69.55.05.26-.38-.03-.7-.17 1.61 1.4 2.35.87 2.98.37.55.98.99 1.29 1.92 1.35.12.43.44 1.02-.64.29.28.24 1.1 1.01 1.9 1.66.82.63 1.66 1.11 1.87.88.09.26.8.63 1 .68 1.33.95 1.44 1.05 2.82 1.88l-.32-.33c.93-.3 1.21.56 2.39 1.12l-.07.05c2.3 1.96 1.23.4 3.53 2.32l.07-.5c.36-.41.84.05 1.49.59.65.55 1.44 1.25 2.29 1.42l-.45-.5c.96.08 1.86 2.27 2.7 2.76.16.16-.35.02-.65-.03 2.11 1.47.51-.43 2.3.03.21.43-.71.67.46 1.13.25.22 1.2.28 2.25.36 1.07.07 2.23.21 2.96.75-.29-.35-.58-.71.29-.66 1.28.18 3.22 1.8 4.55 1.16.15.1.2.18.19.24.51-.02 1.32.04 2.09.06.77-.01 1.49-.07 1.82-.25.35.88 1.92.9 3.36.76 1.44-.09 2.75-.26 2.71.49l3.07-.01-.08.16c1.97.06 2.65-.33 3.32-.71.45.09.13.24.1.32 2.86.09 3.18.07 5.45-1.01l.31.46c.59-.35 4.24.21 6.87-1.03-.01.06-.05.17-.25.29.74-.33 1.59-.48 2.46-.65.86-.17 1.75-.28 2.58-.42 1.63-.3 2.98-.75 3.22-1.78.61-.36 1.19-.78 1.78-1.16-2.53.85.09-.88-1.04-.75.92-.48 2.7-.48 1.55.07l-.22-.01c-.05.52.76.31 1.59 0 .82-.32 1.68-.7 1.78-.39 4.78-2.24 9.51-4.47 13.52-7.48l-.89-.24c.47-.33.92-.68 1.39-1.03.46-.15.84.07-.16.81.77-.08 1.42-1.56 1.34-1.7 2.05-1.31-.19 1.27.39.8.26-.22.51-.45.75-.69l-.23.08c.43-.77.28-1.05 1.42-2 .81-.51.67.02.96-.2.03.04.14-.03.43-.38l1.63-1.47-1.04.19c.5-.87 1.5-1.39.32-1.16.45-.06 1.02-.47 1.67-1.02.64-.56 1.37-1.24 2-2 .64-.74 1.27-1.47 1.76-2.07.48-.61.85-1.06 1.06-1.19.53-1.31 1.29-2.39 2.28-3.7-.34.27-1 .09-.13-1.01.82 1.18 1.9-1.85 3.31-2.34-1.06.57 1.89-3.61.29-2.65.68-.98.48.19 1.18-.46.87-2.74 3.08-5.48 4.17-8.87-.15-.11-.61.34-.59-.45l1.43-1.47c.13-.69-.74-.91.21-1.94-.19.13-.48.32-.4-.14 1.41-3.16 2-6.66 2.46-10.14.43-3.5.67-6.98 1.51-10.49-.37.95-.37.32-.39-.41-.08.47-.43-.01-.67.08.22-.97.41-1.95.59-2.93-.67-.5-.24-3.13-.91-3.38l.19.91c-.84-1.14-1.52 1.82-2.51 1.68.92 1.3-1.08 3.49.04 5.65-.21.47-.3-.41-.53-.16.39.55.48 1.22.23 2.44l-.09-.14c-.1 1.71-.2 2.94-.52 4.19-.28 1.25-.6 2.55-1.1 4.4l.52-.19c-.21.8-.38.95-.57 1.3.54 1.08.45-2.28 1.07-1.28-1.06.91-1.25 5.74-2.56 6.15-.35 1.21.63-.21.28 1.01l-.38.24.28.42c-.32.78-.81 1.06-1.06 1.01.09-.18.12-.56.16-.77-.69.9-.83 2.9-1.1 3.2.21-.35.4-.71.58-1.08-.89 3.36-2.97 7.03-4.07 10.24l.32-.11c-.94 2.42-1.19 1.69-2.55 4.15l.01-.12a4.87 4.87 0 0 1-.89 1.92c.2-.73-1.19.8-.89-.12-1.26 2.51-.47 1.34-.95 3.29l-.56.11c-.13.7-.01.86-.83 2.03.5-1.09-1.01.33-.51-.93-1.27.86-1.82 1.81-2.3 2.59-.5.75-.91 1.34-1.8 1.41-.2 1.7 2.18-1.46 1.81-.76.69-.24-.22 1.34-.95 1.95-.67.69-2.09.2-3.77 1.85.18-.15.13-.23.31-.38-.81.41-1.07 1.41-2.16 1.8-.05.88-1.1.87-.74 1.6.54-.49 1.05-1.02 1.56-1.54-.78.98-1.13 2.42-3.03 3.34.03-.23.38-.77.64-1.12-.62.18-.8.85-1.45 1.01-.32-.72 2-1.76 2.63-3.06-.68.16-1.59 1.99-1.6.92-.03.72-.52 1.06-1.08 1.41-.58.33-1.24.68-1.65 1.49l-.19-.45c-.16.21-.46.7-.85.95l.34-.99c-.75 1.19-2.32.97-3.19 1.88 2.16-1.4.79.17 1.9-.13-2.38 2.28-2.21-.07-5.16 1.9.39-.28 1.71-.65 1.16-.07-.63.27-1.52.51-2 .48-2.05 1.16.55.27-.22.99-.98-.16-.92.77-1.8 1.35l-.21-.43c-2.59.82-.23 1.24-2.64 1.85.24-.33.47-.66.7-1.01-.36.24-.74.43-1.11.64l.04-.6c-1.13.87-1.56.97-2.88 1.27.41.22.13.88-1.01 1.28-.87-.01.29-.58-1.3.03.28-.41.55-.91 1.39-.72.02-.17.26-.41.28-.58-.94-.04-2.09.65-2.69.8.23-.05.51-.1.67-.07l-2.18 1.31c-.42-.07-.16-.29.09-.51-.47.18-.73.52-1.44.71.09-.43-.04-.78.89-1.25-.7.37-1.43.65-2.15.97-.19-.13-1.26-.19-1-.4-.64.05-1.38.36-2.17.68-.79.32-1.65.68-2.52.61-.08.09-.24.18-.6.28-1.61.15-3.06-.24-4.92.44-.37-.2-.74-.43-1.11-.66-1.48.2 1.5.85-.98 1.18-1.77.27-.67-.58-1.29-.76-.86.37-2.42 1.03-4.02.41.5-.21.92-.11 1.42-.14zm-18.22-2.8c.37.03 1.15-.08 1.32.26-.55.42-.79.1-1.32-.26zm-25.04-13.03c.31.06.58.39.81.84a2.97 2.97 0 0 1-.81-.84zm-22.22-73.98c0 .02 0 .03.01.05-.47.74-.3.48-.01-.05zm.81-1.59c0-.19-.07-.2-.16-.16.07.16-.06.54-.24.95.16-.07.32-.26.4-.79zm114.81 77.25l-.34.14c.47-.63.4-.39.34-.14z"/><path class="st19" d="M-23.18-117.73c.03.13-.01.21-.04.3.16.03.22-.05.04-.3zm51.78 13.37h.06c.03-.03.04-.06.04-.09l-.1.09zm-76.42-63.77c-.06.35-.14.54-.23.67.12.01.22-.15.23-.67zm3.44-35.71l-.44 1.06c.24-.5.43-.62.63-.83-.11-.03-.36.09-.19-.23zm7.66-6.71c.05-.16.2-.27.25-.44l-.21-.1c-.4.56-.55 1.05-.04.54zm-5.75 6.55c.4.12.61-.56.93-1.29-.02.04-.04.08-.07.12-.38-.48-.62.35-.86 1.17zm1.01-1.45c.1-.22.21-.44.34-.64-.16-.2-.19.23-.34.64zm-5.5 8.34c.24-.31-.39-.42-.15-.55-.35-.6-.32 2.59.15.55zm5.97-6.79l-.57-.01.14.58zm-3.07 5.28l.64-1.07c-.08-.02-.06-.18-.02-.38-.34.69-.77 1.41-.62 1.45zm.62-1.45c.17-.36.32-.71.34-.94-.09.2-.27.63-.34.94zm1.77-2.29l-.27.27-.45.75zm-6.79 16.29l-.12 1.36c.14.17.32-.17.35-.67-.06-.35-.02-.86-.23-.69zm2.4-3.56c-.2.32-.31.31-.52.46l.59.21-.07-.67zm-.89 3.76c.14.17.11 1.99.4.34-.17-.17.04-1.48-.4-.34zm-2.49 19.85l-.03-.34-1.01.11zm5.63 16.66c-.25-1.53-.74-.15-.84-1.57-.33-.28.08 1.17-.22.87.55.81.56 1.31 1.06.7z"/><path class="st19" d="M-44.87-150.06c-.09-.13-.17-.27-.28-.41.14.24.21.35.28.41zM90.79-175.4l.12-1.08-.28.72zm-.93-1.95l.62-.31-.65-.57c.05.23.16.68.03.88zm-93.05 68.94l-.12.12c.08.21.3.29.72.46l-.6-.58zm12.69 3.72l-.23-.04.34.63zm11.11-.05c-.45-.02-.98.14-1.43.11.97-.11 1.56.61 1.43-.11z"/></g><g class="st8"><path class="st2" d="M375.61-150.33c-.08-.36-.44-.11-.53-.14.28.56.63.1.53.14zm2.87 5.32l-.2-.03.74.65zm2.25 5.08c.37-.76-.93-1.78-1.11-2.79l.08-.21-.71-.18c.59 1.06 1.52 2.35 1.74 3.18zm.04 3.34c.16-.3.52.46-.26-.66.01.07 0 .1 0 .15.06.1.14.25.26.51zm-.26-.51c-.3-.52-.02.45 0 0zm1.44 2.35l-.59-.57c-.06.23.24.86.01.69.53.64.59.4.58-.12zm.84.36l-.31-.29c-.02.1.02.2.31.29zm-.92-.92c.2.21.39.44.62.63.04-.16.22-.28-.27-.3.21-.04-.05-.09-.35-.33zm-.14-.49c-.07-.46-.25-1.01.33-.44-.78-1.25-1.12-.83-.33.44zm-.21-4.21l-.08-.6c-.15-.11-.28-.23-.42-.34.18.18.32 1.07.5.94zm2.76 9.58c.15-.04.19-.45.32-.61l-.46-.39c.08.31.3.84.14 1zm.32-.61l.68.58c-.39-.66-.57-.71-.68-.58zm-1.05-3.64c-.41-.3-.82-.6-1.19-.93.41.41.88.78 1.34 1.15l-.15-.22zm2.67 6.95l-.58-.18.95.38zm1.38 1.72c-.45-.11-.08.71-.45.51.4.45.91.7 1.4.89-.43-.27-.73-.71-.95-1.4zm1.71 1.77c-.22-.14-.48-.25-.76-.37.22.16.47.29.76.37zm-3.22-4.99c-.03.11-.15.35.06.8l.14-.52c-.07-.09-.13-.19-.2-.28zm.2.26v.02c.21.3.36.51.42.6-.05-.09-.18-.27-.42-.62zm-.25-.33c.02.03.03.04.05.07.01-.05.01-.08-.05-.07zm-1.61-3.3c.47.3 1.25 1.03 1.01-.02-.44-.14-.3.46-1.01.02zm1.79 2.65c-.15-.26-.32-.51-.45-.79-.08.08-.13.31-.36.17.24.23.53.42.81.62zm.38.28l-.38-.28.17.29zm1.98 3.99c.39.19.7.5 1.04.84-.28-.45-.63-.86-.92-1.28-.15.03-.47 0-.12.44zm-1.08-1.63c.02.02.05.04.07.06-.01-.07-.02-.11-.07-.06zm5.34 6.05v-.11l-.07.04zm-4.13-4.98c-.17-.36-.4-.48-.63-.58.21.21.42.44.63.7.06-.01.09-.03 0-.12zm1.65 2.88c-.07-.21-.17-.44-.28-.67.03.24.15.69.28.67zm-2.81-3.71l-.05-.04c.01.16.04.12.05.04zm0 0c.17.12.35.19.52.25-.17-.17-.34-.32-.51-.43.01.06.01.12-.01.18zm8.26 4.86c-.32.23-1.32-.19-1.62-1.11-.77-.43-1.38.89-1.36 1.94.14-.1.26-.21 1.07.25-.04-.19-.3-.62-.46-.97-.15-.35-.17-.65.2-.49.98.68.59.76.85 1.31 0-.68 1.58.52 1.9-.18l-.91-.52c.07-.08.46.04.33-.23z"/><path class="st2" d="M391.71-122.67l-.28-.24c.23.36.32.7.47 1.33.55.34.76.31.88.25-.42-.44-.79-.93-1.19-1.39l.12.05zm-1.4-1.49c.52-.07 1.24.47 1.23-.24-.74-.78-.77-.33-1.34-.69 1.24 1.24-.52-.22.14.89a6.65 6.65 0 0 1-.72-.64c.17.27.33.54.46.81 0-.02 0-.03-.01-.05l-.01-.01h.01c-.01-.09 0-.13.03-.05.01 0 .02.02.03.02.06-.02.12-.03.18-.04.27.44-.03.14-.18.05-.02.01-.04.01-.06.03v.01l1.35 1.16c-.2-.32-.52-.66-1.11-1.25zm-3.61-8.2c0 .07-.03.08-.05.1.1.07.15.08.05-.1zm.17.74c-.12-.07-.32-.06-.5-.43-.08-.37.17-.11.28-.21-.23-.14-.72-.55-.48.22l.11.07c.13.33.2.77.23 1.1.05.33.04.57-.02.54.21-.39.31-.68.38-1.29zm1.73 3.72l1.04 1.02-.15-.82-.15.17c-.43-.7-.54-.39-.74-.37zm4.21 6.9l-.47.18 1.07.14zm1.41 1.29l-.32.23.53.18zm94.73-1.87c.08-.11.15-.24.22-.36-.12.16-.18.27-.22.36zm-2.23 1.89l.07.2c.04-.17.03-.27-.07-.2zm-50.81 19.71c.58.44 1.23 1.1 1.2.65l-.15-.46c-.44.03-.78-.06-1.05-.19zm30.85-5.88c-.07-.02-.14-.04-.21-.07-.09.19-.18.36-.26.52.15-.13.3-.28.47-.45zm-.19-1.83l.83.01c-.2-.03-.47-.04-.83-.01zm32.44-26.14c-.03-.21-.06-.42-.1-.63-.41.6-.05.46.1.63zm-89 25.58c.38.43.74.68 1.08.86-.49-.49-.76-1.08-1.08-.86zm81.1-9.11c.15-.23.17-.37.1-.44-.15.23-.22.4-.1.44zM412.5-106.7c-.07-.08-.14-.14-.21-.22-.39-.11-.78-.23-1.2-.47.35.38.8.73 1.41.69zm95.98-82.1c.01-.05 0-.1.01-.14-.06.01-.04.06-.01.14zm-2.64-17.65c.11.14.25.39.38.63-.03-.14-.14-.33-.38-.63zm-105.95 91.96c-.33-.24-.08-.01 0 0zm-.43-2.58c.1.02.19.01.26-.06-.1.06-.18.08-.26.06zm17.76 9.59c.01 0 .02.01.03.01-.07-.11-.06-.09-.03-.01zm-17.68-7.55c.08.14.19.28.32.43-.04-.08-.14-.22-.32-.43zm-.06.21c-.1-.1-.18-.18-.25-.26-.09.02-.08.09.25.26zm.87.67c-.18-.14-.34-.3-.48-.45.04.07.05.11.03.11.09.07.22.17.45.34zm110.37-43.79c.02-.02.03-.05.05-.07-.11-.42-.11-.25-.05.07zm-64.42 53.92c-.02 0-.03.02-.04.02.02 0 .04.01.06.01l-.02-.03zm1.35-.36c-.55.56-.89.5-1.33.4l.5 1.24.83-1.64z"/><path class="st2" d="M493.78-126.61c-.3.16-.61.3-.93.44.31-1.26.98-1.75 0-1.45.95 1.04-2.4 2.74-1.52 3.79l-.66.23c.14-.11.1-.19.24-.3-1.33.37.03 1.33-1.26 2.29-.46.31-.9.4-.72.04l-.7 1.05c-.29.21-.38-.02-.09-.23l-1.34 1.31-.01-.04c-.07.33-.34.96-.49 1.26-.5.14.1-.26-.1-.32l-.62.9c-.55-.02-.08-.82.51-1.22-1.61-.48-.45.83-2.6 1.44.23-.23.46-.46.68-.72-.95-.23-1.41.41-2.57.65.34.06 2.49-.28 1.78.64-.32.1-.68.3-1.02.88-.29-.4-.68.07-1.29.48l-.31-.56c-.56.58-.33.82-.57 1.32-.79.43-1.2.11-1.59-.14-1.26.65 1.26.18-.12 1.14-1.16.37-1.72 1.04-2.81 2.04-.85.19-.05-.41-.41-.44l-.42.79c-.17.07-.19-.09-.2-.18-.46.46.25.59-.56 1.2.07.79-2.27-.07-3.04 1.16-.35-.04-.02-.42-.21-.61-1.31 1.16-1.16.89-2.18 2.07l-1.24.04c.97.14.15 1.08-.64 1.82.37.12.69.22.9.26l-1.39.83c-.22-.04-.13-.3.03-.63-.09.08-.17.17-.23.24-.61-.04-.44-.49-.18-.96.22.06.44.13.66.19.24-.49.44-1.01.23-1.34-.07.1-.23.22-.42.33.06-.13.09-.24.02-.29-.07-.05-.18.14-.36.37l-.56-.56.01.3c-.68.07-1.35.16-2.04.18-1.16 1.08-2.1 2.47-4.33 3.26.45-.64-.07-.86-.17-1.47.75.48 1.67-.63 2.83-.84-.61.1-.55-.22-.43-.36-.62.39-1.26.71-1.9 1.07-.07-.5-.52-.27-1.1-.35.31.44-.04.69-.56.9-.53.18-1.23.29-1.63.52-.11-.32.03-.7 1.07-.8-1.27-.54-1.26 1.42-2.5.99.25-.05.4-.03.47-.21-.54.43-2.04.35-1.73.02l.25-.04c-.85.03-2.13.24-3.22.44-1.1.2-2.01.51-2.12.95-.02-.11.16-1.04.25-1.22-.94 1.05-1.92 2-2.95 2.99.25-.74-.81-2.45.59-2.9-.41-.09-.9-.2-1.75.08.27.1.7 1.04.32 1.11-1.05-.78-.73-.43-1.99-1.17.41.17-.07 1.3-.73 1.24.11-.17-.02-1.13.22-1.24l-1.67 1.06c.42-.19.12-.95-.23-1.28.15.23-1.39-.08-1.83.02l.67.29c-.91-.1-1.39.19-1.88.55-.49.35-.99.71-1.91.57.26-.2.72-1.35-.18-1.61-.25.26-.81.89-1.53 1.48-.36.3-.77.58-1.2.81-.42.2-.86.33-1.29.35l-.25-.39-1.34.1c.98-.69 3.46-1.98 4.72-2.6-.64-.34-.13-.41-1.15-.5-.31-.35.62-.39.92-.38-.38-.09-.77-.15-1.15-.25l-1.13-.34c-.02.68-1.9.29-1.93.86l2.66-.15c0 .68-1.81 1.57-3.49 1.1-.37-.35.58-1.1.59-1.33-.26.18-1.67.1-1.78-.09l.79-.2c-.86-.41-1.72.52-2.63-.43-.37-.15-.87-1.16-1.05-.8.38.91-.13 3.24-.72 3.66-.13-.09-1.84-1.31-2.15-1.8-.44-.76 1.39-1.08 1.02-1.73-.08.17-.49.28-.66.31-.34-.28.33-.46-.53-.69-.36.59-1.68-.71-.59.39-.89-.14-.83-.47-1.8-.81.15.53-1.42 1.06-2.34.91.12-.14.02-.42-.04-.55-1.67-.76-2.39-1.54-3.93-2.26-.07-.22-.71-.75-.26-.86-.27 0-.58.11-1.06-.1-.3-.52-.04-.38.26-.27.31.11.64.21.46-.27-.26.35-1.43-.17-2.19-.33-.09.63 1.41 1.02 2.21 1.08-.19.37-.69.63-1.35.7-.65.05-1.49-.07-2.37-.36-1.36-.55-.26-.79-.54-.81-2.26-1.47-2.78.07-4.32-1.73-.43-.96.57-.9.63-1.34 1.07.49 1.27 1.31 1.94 1.73-.23-.25-.44-.51-.66-.76.4.07 1.11.39 1.4.72-.21-.37-1.12-1.03-2.16-1.79s-2.26-1.57-2.92-2.39c-.39-.09-.99-.34-.9.02l.55.35c.2.73-1.32-.31-.8.38-.87-.32-1.95-.59-2.77-1.57l.22-.62c-.1.15.4.8.79.88-.58-.13-.94-1.84-1.9-1.6l.4.88c-.92-.3-2.13-.64-2.82-1.55-.04.8.23.13.33 1.2.05-.57.56-.06 1.04.41.49.45.99.82.85.13.1 1.14.87 1.16 1.26 2.39.1-.18-.05-.54.62.14.07-.02.2-.01.27-.01.02.02.02.03.04.05l-.03-.05c.05 0 .06 0-.01-.02-.12-.21-.19-.41-.18-.55.66-.07 1.79.9 2.34 1.01.4.4-.33.05-.21.4l.83.14c-.21.4.78 1.46-.46.91l.97.7c.43.61 1.18 1.25 1.77 1.43.41.41 1.44.39.85.41.58.25 1.17.48 1.76.72l-.04.1c1.59.97 3.59 1.33 5.15 2.9.61.17 1.25.32 2.13.89l.02.44c.76.26 2.06 1.32 2.54 1.07.21.64 1.1 1.05 2.1 1.38.5.15 1.02.31 1.5.46.48.14.93.23 1.25.38l.21-.47c.92.3 1.86.43 3.06.58l.05-.45c.54-.04 1.14.26 1.83.53.69.27 1.45.59 2.25.74-.14.14-.54.02-.8-.15 1.72 1.38 4.15.18 5.78 1.05.46-.11.77-.01 1.06.14-.04 0-.08 0-.11.01.04.01.11.02.18.03.18.1.37.21.58.31-.17-.13-.34-.24-.48-.3.34.03.86.04 1.37-.01l.17.51h.12c.48.24.42-.18.19-.57.26-.05.5-.11.69-.21.33.83 1.33-.19 1.82.66.36-.39 2.55-.2 2.83-1.04.01.11.16.17-.11.17.55.12 1.11.24 1.61.02l.24.61 1.2-.85c.74.35 1.06.56.33 1.05 1.75-.78 1.44-.28 2.9-1.12l-.05.4c.54-.06 1.35-.65 1.7-.35.63.36 2.12.18 3.84-.02.86-.08 1.77-.28 2.67-.37.9-.1 1.78-.17 2.58-.19-.84-1 1.53.18 1.44-.72.24.23.7.28.27.63 1.48-.62 2.44-.21 3.29-1.23.26.22-.21.48-.01.59.11-.09.42-.37.63-.26.21.11-.16.29-.37.47 1.57-.49 1.45-1.41 1.31-2.19.89.1 1.27-.09 1.64-.77.35.16.9.26-.02.67.56-.1 3.36-.89 3.18-1.49.22.08.75-.24.86-.37 1.16-.48 1.29-.48 2.39-1.04l-.36.05c.12-.9.86-.57 1.71-1.12l.01.08c2.28-.56.77-.65 3.04-1.19l-.34-.36c-.34-1.01 2.04-.44 2.95-1.49l-.54.02c.41-.68 2.43.11 3.12-.18.18-.01-.13.26-.28.43 1.95-.54-.12-.64.95-1.57.41.13.21.91 1.03.4.27-.03.69-.66 1.2-1.3.52-.65 1.09-1.36 1.81-1.5-.39-.03-.77-.06-.38-.62.74-.66 2.74-.97 2.88-2.19.14-.03.23-.01.27.03.46-.64 1.6-1.95 1.63-2.59 1.73.73 2.74-3.95 3.84-2.88l1.49-1.84.08.15c1.08-1.07 1.1-1.75 1.15-2.39.3-.21.25.08.3.15 1.62-1.53 1.68-1.79 2.13-3.72l.52.13c.03-.28.65-.82 1.32-1.59.67-.76 1.46-1.71 1.73-2.81.04.05.1.13.07.32.74-2.35 4.03-4.54 2.77-6.15l.25-1.64c-.98 1.82-.59-.6-1.21.05.23-.77 1.35-1.67 1.03-.73l-.15.11c.35.35.71-.19 1-.8.29-.62.56-1.28.85-1.14 1.44-3.81 3.1-7.49 3.92-11.27l-.81.28c.12-.43.23-.86.31-1.29.23-.31.65-.36.45.58.5-.42-.06-1.65-.21-1.7.62-1.79.71.87.83.31l.08-.78-.12.16c-.19-.68-.46-.78-.27-1.9.24-.7.49-.31.56-.59.05.01.09-.08.08-.43l.28-1.67-.66.61c-.18-.77.22-1.56-.52-.86.57-.51.76-2.07.88-3.57.06-1.51 0-2.97.17-3.32-.4-1.05-.44-2.06-.41-3.34-.11.32-.74.53-.72-.56 1.35.33.5-2.03 1.34-2.99-.55.85-.47-3.11-1.24-1.76-.01-.92.49-.11.71-.84-.76-2.1-.4-4.84-1.18-7.46-.18 0-.33.5-.73 0l.51-1.6c-.22-.5-1.09-.22-.78-1.32-.1.17-.26.43-.42.1-.29-2.67-1.37-5.19-2.47-7.66-1.1-2.49-2.26-4.92-2.88-7.67.06.81-.21.39-.49-.09.1.36-.38.2-.56.38-.16-.77-.36-1.52-.56-2.28-.76-.02-1.31-2.03-1.98-1.88l.48.53c-1.13-.38-.69 1.99-1.6 2.37.62.22.7.96.86 1.74.14.79.33 1.62 1.27 2.06 0 .41-.42-.13-.52.15.57.17.86.6 1.13 1.52l-.14-.05c1.26 2.33 1.36 3.55 2.17 6.39l.37-.37c.16.62.07.8.06 1.12.93.44-.59-1.69.39-1.35-.58 1.12 1.51 4.27.59 5.15.27.94.45-.43.71.51l-.21.33.44.13c.13.63-.16 1.05-.4 1.13-.01-.16-.17-.41-.24-.56-.12.88.68 2.23.65 2.53l-.05-.95c.92 2.52 1.11 5.78 2 8.27l.2-.22c.6 1.93-.05 1.6.28 3.75l-.06-.08c.25.42.39 1 .4 1.59-.28-.54-.47 1.05-.79.34.48 2.12.37 1.04 1.22 2.46l-.38.33c.32.49.5.53.57 1.63-.3-.91-.58.68-.98-.33-.83 2.23.63 3.43-.61 4.38.94 1.14.72-1.92.89-1.32.37-.47.7.92.54 1.64-.06.74-1.44 1.11-1.64 2.91.03-.18-.05-.2-.02-.38-.35.64.2 1.38-.38 2.13.53.57-.23 1.06.53 1.34l.12-1.69c.03.96.81 2.03.05 3.5-.12-.15-.23-.65-.3-1-.3.41-.02.9-.37 1.32-.72-.29.24-2.04-.18-3.14-.41.42.23 1.99-.53 1.33.96.94-.5 1.71.04 3.1l-.44-.19c.03.21.16.65.06 1l-.45-.78c.31 1.1-.93 1.73-.91 2.71.53-1.91.67-.27 1.24-1-.09 2.55-1.52 1.05-2.18 3.69.05-.37.72-1.23.74-.61-.26.47-.66 1.06-.99 1.28-.49 1.75.55-.1.58.73-.73.4-.09.92-.21 1.74l-.45-.17c-1.06 1.82.75.9-.33 2.5-.09-.33-.19-.66-.31-.99-.06.33-.14.65-.23.97l-.42-.4c-.06 1.13-.3 1.39-.86 2.27.4-.08.76.51.34 1.34-.55.44-.25-.52-.79.68-.13-.4-.33-.86.33-1.17-.11-.12-.14-.39-.25-.51-.6.45-.84 1.47-1.05 1.89.1-.15.22-.33.33-.4-.1.66-.16 1.34-.29 1.99-.31.17-.32-.1-.33-.38-.15.36-.08.69-.33 1.21-.27-.32-.64-.49-.4-1.27l-.51 1.77c-.21.02-.86.56-.87.28-.71.71-.65 2.46-1.64 3.39.02.1 0 .25-.11.51-.8.96-1.79 1.58-2.29 3.05l-1.06.22c-.58 1 1.39-.34.41 1.34-.71 1.19-.79 0-1.25.24-.18.72-.38 2.13-1.67 2.65.14-.39.45-.55.66-.88zm-10.37 9.75c.17-.24.43-.81.76-.7.08.62-.29.55-.76.7zm-18.98 10.81c.15-.22.48-.25.88-.19-.24.13-.53.21-.88.19zm-60.71-6.14h.04c.43.53.28.33-.04 0zm-1-.96c-.15-.02-.18.04-.17.12.15-.04.41.12.67.35-.01-.15-.11-.32-.5-.47zm111.88-48.4l-.16.25c-.06-.62.04-.44.16-.25z"/><path class="st2" d="M466.58-107.47c.1.05.15.13.2.21.08-.11.05-.2-.2-.21zm32.45-26.24l.03-.03c-.01-.04-.03-.06-.05-.08l.02.11zm-76.27 26.31c.23.14.35.27.41.38.05-.11-.03-.24-.41-.38zm-26.27-9.6l.77.47c-.35-.25-.39-.43-.51-.62-.06.09-.04.32-.26.15zm-3.25-7.41c-.13-.05-.18-.19-.31-.24l-.14.18c.36.38.74.53.45.06zm3.72 5.67c.22-.35-.26-.62-.75-.98.03.02.05.05.08.07-.52.29.08.6.67.91zm-.86-1.07c-.15-.12-.29-.24-.41-.38-.2.11.14.19.41.38zm5.03 5.89c-.18-.25-.46.3-.49.07-.59.24 1.97.63.49-.07zm-3.62-6.15l-.18.52.51-.07zm3.35 3.32l-.65-.71c-.04.07-.17.04-.31-.03.44.39.88.87.96.74zm-.96-.74c-.23-.2-.46-.38-.65-.42.13.1.42.31.65.42zm-1.34-1.81l.15.26.49.45zm10.71 8.41l.97.4c.18-.1-.02-.33-.38-.47-.27-.01-.64-.15-.59.07zm-1.97-2.75c.17.25.14.34.18.56l.36-.51c-.18-.02-.37-.03-.54-.05zm2.64 1.38c.18-.1 1.52.32.39-.3-.17.1-1.13-.29-.39.3zm13.81 6.93l-.26-.07-.26.98zm13.65.3c-1.14-.39-.35.59-1.38.15-.31.2.84.36.53.53.75-.16 1.11.03.85-.68zm-.84.68c-.12.03-.25.06-.38.11.21-.03.31-.07.38-.11zm68.21-104.94l-.27-.8v.63zm-1.49-.9l.44-.52-.75-.08c.12.14.36.4.31.6zm-22.34 93.47l.04.16c.19.07.34-.02.64-.2l-.68.04zm8.27-5.98l-.13.11.64.2zm5.33-6.72c-.25.25-.41.64-.66.89.42-.64 1.29-.49.66-.89z"/></g><ellipse class="st15" cx="-112.4" cy="506.6" rx="38.79" ry="39.22"/><ellipse class="st20" cx="61.76" cy="522.15" rx="38.79" ry="39.22"/></g></svg>